<svg width="18px" height="20px" viewBox="0 0 18 20" version="1.1" xmlns="http://www.w3.org/2000/svg" xmlns:xlink="http://www.w3.org/1999/xlink">
    <g id="Page-1-Copy" stroke="none" stroke-width="1" fill="none" fill-rule="evenodd">
        <g id="Arrow_up" transform="translate(-272.000000, -410.000000)" fill-rule="nonzero" fill="#C4C4C4">
            <g id="up-arrow-2" transform="translate(271.609174, 410.609174)">
                <path d="M10.647856,0.710814069 C9.78623597,-0.150946644 8.38733405,-0.150946644 7.52585464,0.710814069 L7.52472944,0.710814069 C7.52247905,0.713064464 7.52135385,0.715314859 7.52022865,0.716440057 L1.27974211,6.95622335 C0.417137495,7.81826537 0.417137495,9.21787053 1.27974211,10.0797719 L1.27974211,10.078506 C2.14178412,10.94097 3.53970149,10.94097 4.4023061,10.078506 L6.87872537,7.60335262 L6.87872537,16.8163299 C6.87872537,18.0349189 7.86791471,19.0246709 9.08706631,19.0246709 C10.3062179,19.0246709 11.294704,18.0349189 11.294704,16.8163299 L11.294704,7.60335262 L13.77042,10.078506 C14.6333059,10.94097 16.0316453,10.94097 16.892984,10.078506 L16.892984,10.0797719 C17.7558699,9.21787053 17.7558699,7.81840602 16.892984,6.95622335 L10.647856,0.710814069 Z" id="Arrow_up"></path>
            </g>
        </g>
    </g>
</svg>