<svg viewBox="0 0 38 38" version="1.1" xmlns="http://www.w3.org/2000/svg">
    <g id="Page-1-Copy" stroke="none" stroke-width="1" fill="none" fill-rule="evenodd">
        <g id="Error" transform="translate(-404.000000, -240.000000)" fill-rule="nonzero">
            <g id="Group-8" transform="translate(404.000000, 240.000000)">
                <circle id="Oval" fill="#D0021B" cx="18.7468982" cy="19.2468982" r="18.7468982"></circle>
                <path d="M16.9615735,20.4670454 L16.4316801,12.543248 C16.3322361,10.9992155 16.2836612,9.89093289 16.2836612,9.2184002 C16.2836612,8.30307221 16.5237667,7.58853095 17.0023954,7.07667511 C17.4822108,6.56252502 18.114238,6.30612242 18.8963411,6.30612242 C19.8453709,6.30612242 20.4803253,6.63443799 20.7994639,7.29067357 C21.1186024,7.94754205 21.2792793,8.89332823 21.2792793,10.1273992 C21.2792793,10.8556269 21.2401978,11.5956423 21.1638546,12.3442809 L20.4522405,20.499877 C20.3752643,21.4711373 20.2100781,22.2150292 19.9554951,22.733926 C19.7017823,23.2516362 19.2823295,23.5104121 18.6985607,23.5104121 C18.1023712,23.5104121 17.6894056,23.2605758 17.4579234,22.757897 C17.2262038,22.2571169 17.0601473,21.4924976 16.9615735,20.4670454 Z M18.7977673,31.3516955 C18.1252346,31.3516955 17.5370355,31.1350072 17.0361763,30.6989409 C16.5341304,30.2640612 16.2836612,29.6548974 16.2836612,28.8712912 C16.2836612,28.1872081 16.5237667,27.6051797 17.0023954,27.1253643 C17.4822108,26.6455489 18.0698561,26.4060763 18.7646193,26.4060763 C19.459699,26.4060763 20.0516955,26.6455489 20.5428239,27.1253643 C21.0336359,27.6051797 21.2793584,28.1874454 21.2793584,28.8712912 C21.2793584,29.6427141 21.0312626,30.2489508 20.5342798,30.6906341 C20.0384046,31.1314472 19.459699,31.3516955 18.7977673,31.3516955 Z" id="Shape" fill="#FFFFFF"></path>
            </g>
        </g>
    </g>
</svg>