<svg id="Layer_1" data-name="Layer 1" xmlns="http://www.w3.org/2000/svg" viewBox="0 0 400 148">
  <title>
    logo-twig2
  </title>
  <path id="text" d="M133.24 104.47h-7.8v-19.9h-2.93v22.64h10.8zm174.94-7.17h8.08a9 9 0 0 1-2.86 5.65 8.47 8.47 0 0 1-5.82 2 8.05 8.05 0 0 1-6-2.4 9.9 9.9 0 0 1 0-13.38 8.74 8.74 0 0 1 12.1.06l2.1-2.07a11.14 11.14 0 0 0-8.12-3.05 11.26 11.26 0 0 0-8.2 3.2 12.44 12.44 0 0 0 0 17.3 11.26 11.26 0 0 0 8.2 3.1 10.86 10.86 0 0 0 10.14-5.7 13.3 13.3 0 0 0 1.55-6.7v-.6h-11.17zm21.5-2.85l-2-.65a7.4 7.4 0 0 1-1.8-.9 3 3 0 0 1-1.18-2.6 3.45 3.45 0 0 1 1.1-2.67 4.16 4.16 0 0 1 2.94-1q3.85 0 4.38 4.35h3A7 7 0 0 0 334 86a7.46 7.46 0 0 0-5.26-1.8 7.16 7.16 0 0 0-5 1.67 5.7 5.7 0 0 0-1.85 4.46 5.54 5.54 0 0 0 1.9 4.53 9.94 9.94 0 0 0 2.4 1.43l2.5.8a12.17 12.17 0 0 1 3.5 1.6 3.33 3.33 0 0 1 1.2 2.7 3.15 3.15 0 0 1-1.2 2.5 4.77 4.77 0 0 1-3.2 1 4.72 4.72 0 0 1-3.4-1.2 4.2 4.2 0 0 1-1.3-3.2l-3 .1a7.3 7.3 0 0 0 2.3 5 7.5 7.5 0 0 0 5.2 1.8 7.85 7.85 0 0 0 5.3-1.8 5.74 5.74 0 0 0 2-4.6 5.62 5.62 0 0 0-1.7-4.3 14.05 14.05 0 0 0-5.1-2.8zm23.57 6.27a4.8 4.8 0 0 0-.54 1.88 5.4 5.4 0 0 0-.5-1.88l-8.6-16.14h-2.9v22.63h3l-.1-15.7a9.3 9.3 0 0 0-.4-2.5 13.64 13.64 0 0 0 1 2.4l8.7 16.3 8.5-15.8a20.2 20.2 0 0 0 1.3-3 23.3 23.3 0 0 0-.4 3.2l-.2 15.4h3V84.6h-3zm16.5 6.5h11.76v-2.67h-8.8v-7.6h8.8v-2.6h-8.8v-7.1h8.8V84.6h-11.7zm27.8-10.13a14 14 0 0 0-5.08-2.7l-2-.7a7.35 7.35 0 0 1-1.8-.9 3 3 0 0 1-1.18-2.6 3.44 3.44 0 0 1 1.1-2.7 4.16 4.16 0 0 1 2.9-1q3.8 0 4.4 4.3h3a7 7 0 0 0-2.1-5 7.46 7.46 0 0 0-5.3-1.8 7.16 7.16 0 0 0-5 1.6 5.7 5.7 0 0 0-1.9 4.4 5.54 5.54 0 0 0 1.9 4.5 9.94 9.94 0 0 0 2.4 1.4l2.5.9a12.22 12.22 0 0 1 3.5 1.6 3.34 3.34 0 0 1 1.2 2.7 3.16 3.16 0 0 1-1.1 2.6 5.55 5.55 0 0 1-6.5-.2 4.2 4.2 0 0 1-1.3-3.2l-3 .1a7.3 7.3 0 0 0 2.2 5 7.5 7.5 0 0 0 5.2 1.8 7.86 7.86 0 0 0 5.3-1.8 5.74 5.74 0 0 0 2-4.5 5.6 5.6 0 0 0-1.7-4.2zM140.18 102h10.63l2 5.23h3.5l-9.5-22.66h-2.4l-9.3 22.65h3.2zm4.64-11.77q.16-.37.68-2.1.42 1.43.68 2.1l3.56 9.1h-8.53zm21.52 17.46a8.38 8.38 0 0 0 6.26-2.5 8.9 8.9 0 0 0 2.4-6.6v-14h-3v14a6.93 6.93 0 0 1-1.48 4.7 6.2 6.2 0 0 1-8.42 0 6.87 6.87 0 0 1-1.5-4.8v-14h-3v14.1a8.9 8.9 0 0 0 2.4 6.5 8.4 8.4 0 0 0 6.35 2.4zm25.47-.5h4.2l-9.8-10.6a3.83 3.83 0 0 0-.7-.7l.9-.8 9.5-10.6H192l-8.3 9.5-.9 1c0-.8.04-1.3.04-1.5v-9.1h-3V107h3v-8.6c0-.3 0-.8-.06-1.55l.84 1.1zm15.5.4a8.38 8.38 0 0 0 6.3-2.5 8.9 8.9 0 0 0 2.4-6.5v-14h-3v14a6.94 6.94 0 0 1-1.5 4.7 6.2 6.2 0 0 1-8.4 0 6.86 6.86 0 0 1-1.5-4.8v-14h-3v14.1a8.9 8.9 0 0 0 2.4 6.5 8.4 8.4 0 0 0 6.4 2.4zm20.7-.5h3V84.6h-3zm23.2-22.7h-16.3v2.7h11.6A8.57 8.57 0 0 0 245 89l-11.3 18.07h16.9v-2.64h-12.2a14.23 14.23 0 0 0 1.7-2.3zm10.6 0l-9.2 22.6h3.2l2-5.3h10.7l2 5.2h3.5l-9.6-22.7zm-3 14.7l3.6-9.1q.2-.4.7-2.1.4 1.4.7 2.1l3.6 9.1zm30.9-.8a6.94 6.94 0 0 1-1.5 4.8 6.2 6.2 0 0 1-8.4 0 6.87 6.87 0 0 1-1.4-4.8v-14h-3v14.2a8.9 8.9 0 0 0 2.4 6.5 9.32 9.32 0 0 0 12.5 0 8.9 8.9 0 0 0 2.4-6.6v-14h-3zm-156.1 34.3h8.1a9 9 0 0 1-2.8 5.6 8.48 8.48 0 0 1-5.8 2 8.06 8.06 0 0 1-6-2.4 9.92 9.92 0 0 1 0-13.4 8.74 8.74 0 0 1 12.1.1l2.1-2.1a11.14 11.14 0 0 0-8.1-3.1 11.28 11.28 0 0 0-8.2 3.1 12.44 12.44 0 0 0 0 17.3 11.26 11.26 0 0 0 8.2 3.1 10.86 10.86 0 0 0 10.1-5.7 13.3 13.3 0 0 0 1.6-6.7v-.6h-11.2zm21.5 1.1a6.52 6.52 0 0 0 4.9-2 6.9 6.9 0 0 0 1.9-5 6.15 6.15 0 0 0-2.2-5 9.76 9.76 0 0 0-6.3-1.9H148v22.6h3v-9.2l8.05 9.2h3.7l-8-8.8zm-4-2.3v-9h2q5.8 0 5.8 4.3 0 4.6-5.6 4.6zm28.9 2.3a6.93 6.93 0 0 1-1.5 4.8 6.2 6.2 0 0 1-8.4 0 6.88 6.88 0 0 1-1.5-4.8v-14h-3V134a8.9 8.9 0 0 0 2.4 6.54 9.32 9.32 0 0 0 12.6 0A8.9 8.9 0 0 0 183 134v-14h-3zm18.9-11.9a9 9 0 0 0-6.2-2.1h-4.8v22.64h3V135h2.4a8.06 8.06 0 0 0 5.8-2.07 7.54 7.54 0 0 0-.07-10.7zm-2.1 8.8a5.15 5.15 0 0 1-3.7 1.2h-2.3v-9.47h1.9q5.6 0 5.6 4.65a4.66 4.66 0 0 1-1.3 3.5zm12.8-10.9l-9.2 22.6h3.2l2-5.28H216l2 5.22h3.44l-9.6-22.66zm-3 14.7l3.6-9.1c.1-.28.4-.98.7-2.1q.4 1.4.7 2.1l3.6 9.1z" fill="#fff"/>
  <g id="logo">
    <path d="M80.82 60a10.15 10.15 0 1 1-20.3 0V12a10.15 10.15 0 1 1 20.3 0v48z" fill="#fff"/>
    <path d="M80.82 135.75a10.15 10.15 0 1 1-20.3 0v-48a10.15 10.15 0 1 1 20.3 0z" fill="#51383b" stroke="#fff" stroke-opacity=".22" stroke-width="2.12"/>
    <path d="M54.37 61.8A10.16 10.16 0 1 1 39.5 75.65L6.8 40.55a10.26 10.26 0 0 1 .4-14.46 10.26 10.26 0 0 1 14.45.6z" fill="#0c997b" stroke="#fff" stroke-opacity=".24" stroke-width="2.12"/>
    <path d="M87 61.8a10.15 10.15 0 1 0 14.85 13.85l32.73-35.1A10.15 10.15 0 1 0 119.7 26.7z" fill="#005496" stroke="#fff" stroke-opacity=".25" stroke-width="2.12"/>
  </g>
</svg>
