<svg width="45px" height="49px" viewBox="0 0 45 49" version="1.1" xmlns="http://www.w3.org/2000/svg">
    <g id="Page-1" stroke="none" stroke-width="1" fill="none" fill-rule="evenodd">
        <g id="Group-8">
            <g id="Page-1">
                <path d="M25.7749942,19.5615812 C25.7749942,21.461929 24.2417913,23.0171464 22.368429,23.0171464 C20.4943565,23.0171464 18.9625739,21.461929 18.9625739,19.5615812 L18.9625739,3.45407391 C18.9625739,1.55443623 20.4943565,-7.10144923e-05 22.368429,-7.10144923e-05 C24.2417913,-7.10144923e-05 25.7749942,1.55443623 25.7749942,3.45407391 L25.7749942,19.5615812 L25.7749942,19.5615812 Z" id="Fill-1" fill="#4C4C4E"></path>
                <path d="M22.3681449,22.5131565 C20.7681884,22.5131565 19.4672029,21.1901565 19.4672029,19.5617942 L19.4672029,3.45428696 C19.4672029,1.82805507 20.7681884,0.504344928 22.3681449,0.504344928 C23.9688116,0.504344928 25.2705072,1.82805507 25.2705072,3.45428696 L25.2705072,19.5617942 C25.2705072,21.1901565 23.9688116,22.5131565 22.3681449,22.5131565" id="Fill-3" fill="#FEFEFE"></path>
                <path d="M25.7749942,44.9780942 C25.7749942,46.8798623 24.2417913,48.4357899 22.368429,48.4357899 C20.4943565,48.4357899 18.9625739,46.8798623 18.9625739,44.9780942 L18.9625739,28.8748478 C18.9625739,26.9723696 20.4943565,25.416442 22.368429,25.416442 C24.2417913,25.416442 25.7749942,26.9723696 25.7749942,28.8748478 L25.7749942,44.9780942 Z" id="Fill-5" fill="#51383B"></path>
                <g id="Group-9" transform="translate(0.000000, 7.247455)" fill="#0C997B">
                    <path d="M16.9005971,12.9146957 C18.1959014,14.3058696 18.1362493,16.4888551 16.7663797,17.7671159 C15.3972203,19.0453768 13.2142348,18.9523478 11.9168,17.5625942 L0.933698551,5.78271014 C-0.362315942,4.39437681 -0.301243478,2.2113913 1.0672058,0.933130435 C2.4392058,-0.34442029 4.62077101,-0.252101449 5.91678551,1.13836232 L16.9005971,12.9146957 Z" id="Fill-7"></path>
                </g>
                <path d="M27.8378232,20.1621507 C26.5403884,21.5533246 26.6007507,23.7363101 27.9699101,25.014571 C29.3412,26.2928319 31.5241855,26.1998029 32.8194899,24.8100493 L43.8025913,13.0301652 C45.0986058,11.6418319 45.0396638,9.45884638 43.6690841,8.18058551 C42.2992145,6.90303478 40.1183594,6.99535362 38.8209246,8.38581739 L27.8378232,20.1621507 Z" id="Fill-10" fill="#005496"></path>
            </g>
        </g>
    </g>
</svg>