<svg version="1" xmlns="http://www.w3.org/2000/svg" width="1045.333" height="1045.333" viewBox="0 0 784.000000 784.000000"><path d="M379 1.1c-7.8 2.1-16 5.6-20.4 8.9-5 3.7-13.6 13.5-16.4 18.8-3.3 6.3-6.5 16-5.6 17.3.3.5.1.9-.3.9-1 0-.9 273.1 0 276.9 3.8 14.8 11.4 26.4 22.7 34.4 2.5 1.7 4.7 3.2 5 3.3.3 0 2.6 1.1 5.2 2.2 6.8 3.2 21.3 5.8 24.2 4.3.6-.2 2.4-.5 4-.7 10-.7 21.5-6.5 30.5-15.4 9.2-9.1 13.8-18.3 15.8-31.2.7-4.7.8-265.6.1-272.8C442.3 33.4 433 18.2 420 9.4c-8.4-5.8-17.4-8.6-28-8.9-5.2-.2-11.1.1-13 .6zM81.7 116.6c-.1.1-2.2.4-4.7.7-5.4.6-13.8 3.8-20.3 7.8-22.1 13.6-30.8 44.3-19.4 68.8 3.1 6.9 6.4 11.2 16.2 21.6 1.7 1.8 7.6 8.1 13.1 14.1 5.6 6 11.7 12.5 13.5 14.5 1.9 2 7.9 8.4 13.4 14.3 5.5 6 12 13 14.5 15.6 2.5 2.6 8.8 9.4 14 15 5.2 5.6 11.3 12.2 13.5 14.5 5.9 6.3 24.9 26.6 27.6 29.6 2.6 2.8 22.9 24.6 29.2 31.3 2.2 2.3 7.8 8.3 12.5 13.5 21.9 23.9 28.3 29.2 41.7 34.2 6.3 2.4 19.5 3.1 27.5 1.5 9.5-2 23.5-9.3 26.3-13.8.7-1 1.7-1.8 2.4-1.8s1.3-.5 1.3-1c0-.6.9-2.1 2.1-3.3 3-3.2 7.7-12.8 9.5-19.4 1.5-5.8 2.2-22.3.9-24.3-.3-.6-.9-2.3-1.1-3.8-.7-4-6.4-15.9-8.5-17.8-1.1-.9-1.9-2.1-1.9-2.5 0-.4-2.1-3-4.7-5.7-2.7-2.7-9.5-10-15.3-16.3-10.3-11.1-18.1-19.5-25-26.8-9-9.6-26.1-28-29-31.1-1.8-1.9-8.1-8.7-14-15-5.9-6.3-12.2-13.1-14-15-3.6-4-32.2-34.6-42.5-45.5-1.6-1.8-7.9-8.6-14-15-6-6.5-12.5-13.4-14.2-15.3-1.8-1.9-3.3-3.9-3.3-4.5 0-.6-.3-.7-.6-.4-.4.3-1.5-.4-2.5-1.8-3.4-4.2-12-9.8-20.2-13.1-4.5-1.8-8.4-3.1-8.9-2.8-.4.3-1.3.2-1.9-.2-1.1-.6-12.6-1.3-13.2-.8zM685.2 117.2c-3 .5-8.4 2-12 3.5-11.4 4.5-13.8 6.7-44.2 39.3-5.8 6.2-12.1 13-14 15-3.7 4-21.3 22.8-26.9 28.9-1.8 2-8.4 9-14.6 15.6-6.2 6.6-12.5 13.3-13.9 15-1.5 1.6-7.6 8.2-13.6 14.5-5.9 6.3-12.2 13.1-14 15-3.1 3.4-20.5 22.1-26.5 28.5-8.5 9-24.7 26.3-26.9 28.7-16.8 18.4-20.7 42.3-10.3 63.7 3.7 7.5 13.9 18.5 20.8 22.4 18.5 10.5 41.3 9.4 58.9-2.6 4.6-3.2 10.7-9.2 24.5-24.2 4.4-4.8 9.6-10.4 11.5-12.4 1.9-2 8.7-9.3 15-16.1 6.3-6.8 13.8-14.7 16.5-17.6 2.8-2.9 8.6-9.1 13-13.9 4.3-4.7 9.5-10.3 11.5-12.4 1.9-2 8.5-9.1 14.5-15.6 6.1-6.5 12.6-13.5 14.5-15.5 1.9-2 7.6-8.1 12.5-13.5 5-5.3 11.3-12.1 14-15 4.6-4.9 22-23.5 29-31 1.7-1.8 4.9-5.3 7.2-7.8 5.4-5.8 9.8-12.7 12.4-19.7 2.9-7.6 3.3-10.2 3.3-20.1-.2-33.2-29-57.5-62.2-52.7zM385.5 406.7c-9.2 1.4-14.9 3.2-20.5 6.4-.8.5-2.6 1.4-3.9 1.9-3.6 1.6-15.4 13.9-18.3 19.2-2.9 5.3-5.8 13.3-6.6 18.7-.9 5.3-.7 273 .2 277.1 2.1 10.5 7.7 21.1 14.6 27.9 8.7 8.5 12.7 11.1 22.1 14.3 7.9 2.6 23.8 3.2 30.2 1.1 13.8-4.5 23.1-11 30.8-21.3 3.3-4.6 7.4-13.5 8.5-18.5.2-1.1.7-3.4 1.1-5 .8-4 .9-268.7 0-274.5-2.5-17.6-14.2-33.8-29.9-41.4-4-1.9-8.4-3.8-9.8-4-1.4-.3-3.8-.7-5.5-1-4.2-.8-10.6-1.2-13-.9z"/></svg>